<!DOCTYPE svg PUBLIC "-//W3C//DTD SVG 1.1//EN" "http://www.w3.org/Graphics/SVG/1.1/DTD/svg11.dtd">

<!-- Uploaded to: SVG Repo, www.svgrepo.com, Transformed by: SVG Repo Mixer Tools -->
<svg height="800px" width="800px" version="1.1" id="Layer_1" xmlns="http://www.w3.org/2000/svg" xmlns:xlink="http://www.w3.org/1999/xlink" viewBox="0 0 512 512" xml:space="preserve" fill="#000000" stroke="#000000" stroke-width="1.024">

<g id="SVGRepo_bgCarrier" stroke-width="0"/>

<g id="SVGRepo_tracerCarrier" stroke-linecap="round" stroke-linejoin="round"/>

<g id="SVGRepo_iconCarrier"> <g> <path style="fill:#E6EEF4;" d="M423.724,0H88.276c-9.754,0-17.655,7.901-17.655,17.655v476.69c0,9.754,7.901,17.655,17.655,17.655 h335.448c9.754,0,17.655-7.901,17.655-17.655V17.655C441.379,7.901,433.479,0,423.724,0"/> <g> 
<path style="fill:#D71E00;" d="M256,238.345c9.507-24.214,29.625-44.138,54.881-44.138c21.257,0,40.201,9.993,52.966,26.483 c16.013,20.692,27.33,66.754-7.715,101.8C338.353,340.268,256,423.724,256,423.724s-82.353-83.456-100.131-101.235 c-35.046-35.046-23.729-81.108-7.715-101.8c12.765-16.49,31.709-26.483,52.966-26.483 C226.375,194.207,246.493,214.131,256,238.345"/> 
 <path style="fill:#D71E00;" d="M132.417,150.068c19.441,0,35.31-15.869,35.31-35.31V61.792c0-4.875-3.952-8.828-8.828-8.828 c-4.875,0-8.828,3.952-8.828,8.828v52.966c0,9.69-7.965,17.655-17.655,17.655c-7.484,0-14.148-4.792-16.643-11.772 c-1.641-4.591-6.693-6.982-11.284-5.341c-4.591,1.641-6.982,6.693-5.341,11.284C104.133,140.525,117.405,150.068,132.417,150.068z "/> <path style="fill:#D71E00;" d="M132.414,26.483c-19.503,0-35.31,15.808-35.31,35.31s15.808,35.31,35.31,35.31 s35.31-15.808,35.31-35.31S151.916,26.483,132.414,26.483z M132.414,79.448c-9.752,0-17.655-7.903-17.655-17.655 s7.903-17.655,17.655-17.655s17.655,7.903,17.655,17.655S142.166,79.448,132.414,79.448z"/> </g> </g> </g>

</svg>